<?xml version="1.0" ?><!-- Uploaded to: SVG Repo, www.svgrepo.com, Generator: SVG Repo Mixer Tools -->
<svg width="800px" height="800px" viewBox="0 0 32 32" id="OBJECT" xmlns="http://www.w3.org/2000/svg"><defs><style>.cls-1{fill:#b2b2b2;}</style></defs><title/><path class="cls-1" d="M30.89,15.54A17,17,0,0,0,16,6,17,17,0,0,0,1.11,15.54a1,1,0,0,0,0,.92A17,17,0,0,0,16,26a17,17,0,0,0,14.89-9.54A1,1,0,0,0,30.89,15.54Z"/><circle cx="16" cy="16" r="5"/><path d="M16,5a1,1,0,0,1-1-1V2a1,1,0,0,1,2,0V4A1,1,0,0,1,16,5Z"/><path d="M22,6a.93.93,0,0,1-.45-.11,1,1,0,0,1-.44-1.34l1-2a1,1,0,0,1,1.78.9l-1,2A1,1,0,0,1,22,6Z"/><path d="M10,6a1,1,0,0,1-.89-.55l-1-2a1,1,0,1,1,1.78-.9l1,2a1,1,0,0,1-.44,1.34A.93.93,0,0,1,10,6Z"/><path d="M16,31a1,1,0,0,1-1-1V28a1,1,0,0,1,2,0v2A1,1,0,0,1,16,31Z"/><path d="M23,30a1,1,0,0,1-.89-.55l-1-2a1,1,0,0,1,1.78-.9l1,2a1,1,0,0,1-.44,1.34A.93.93,0,0,1,23,30Z"/><path d="M9,30a.93.93,0,0,1-.45-.11,1,1,0,0,1-.44-1.34l1-2a1,1,0,1,1,1.78.9l-1,2A1,1,0,0,1,9,30Z"/></svg>